<?xml version="1.0" encoding="UTF-8" standalone="no"?>
<svg
   xmlns:dc="http://purl.org/dc/elements/1.1/"
   xmlns:cc="http://creativecommons.org/ns#"
   xmlns:rdf="http://www.w3.org/1999/02/22-rdf-syntax-ns#"
   xmlns:svg="http://www.w3.org/2000/svg"
   xmlns="http://www.w3.org/2000/svg"
   xmlns:sodipodi="http://sodipodi.sourceforge.net/DTD/sodipodi-0.dtd"
   xmlns:inkscape="http://www.inkscape.org/namespaces/inkscape"
   viewBox="0 0 18 16"
   version="1.1"
   id="svg17"
   sodipodi:docname="icon.svg"
   inkscape:version="0.92.2 5c3e80d, 2017-08-06"
   width="18"
   height="16">
  <metadata
     id="metadata21">
    <rdf:RDF>
      <cc:Work
         rdf:about="">
        <dc:format>image/svg+xml</dc:format>
        <dc:type
           rdf:resource="http://purl.org/dc/dcmitype/StillImage" />
        <dc:title></dc:title>
      </cc:Work>
    </rdf:RDF>
  </metadata>
  <sodipodi:namedview
     pagecolor="#ffffff"
     bordercolor="#666666"
     borderopacity="1"
     objecttolerance="10"
     gridtolerance="10"
     guidetolerance="10"
     inkscape:pageopacity="0"
     inkscape:pageshadow="2"
     inkscape:window-width="1920"
     inkscape:window-height="1053"
     id="namedview19"
     showgrid="false"
     inkscape:zoom="14.75"
     inkscape:cx="-3.7288136"
     inkscape:cy="8"
     inkscape:window-x="0"
     inkscape:window-y="27"
     inkscape:window-maximized="1"
     inkscape:current-layer="svg17" />
  <defs
     id="defs13">
    <linearGradient
       gradientUnits="userSpaceOnUse"
       y2="-2.6229999"
       x2="0"
       y1="986.66998"
       id="0">
      <stop
         stop-color="#ffce3b"
         id="stop2" />
      <stop
         offset="1"
         stop-color="#ffd762"
         id="stop4" />
    </linearGradient>
    <linearGradient
       y2="-2.6229999"
       x2="0"
       y1="986.66998"
       gradientUnits="userSpaceOnUse"
       id="linearGradient11">
      <stop
         stop-color="#ffce3b"
         id="stop7" />
      <stop
         offset="1"
         stop-color="#fef4ab"
         id="stop9" />
    </linearGradient>
  </defs>
  <path
     d="m 9.2801936,1.994285 c -0.077254,0 -0.1545082,0.024001 -0.2197617,0.072004 C 8.4356486,2.5215631 6.5357972,3.7643794 4.2084231,3.982641 3.9286582,4.0081424 3.7141468,4.2406548 3.7088965,4.5219198 3.680395,6.3572677 3.9744106,12.58935 9.1391861,13.976174 c 0.091505,0.02475 0.18826,0.02475 0.2797649,0 5.164776,-1.385324 5.460292,-7.6189063 5.43329,-9.4542542 C 14.848491,4.2406548 14.630979,4.0088924 14.351214,3.982641 12.02384,3.7651294 10.125489,2.5215631 9.4992053,2.0662888 9.4339518,2.0182863 9.3566977,1.994285 9.2794436,1.994285 m 0,4.12522 c 0.6307836,0 1.1423104,0.5115273 1.1423104,1.1423109 0,0.3255174 -0.136507,0.618033 -0.354768,0.8265441 l 0.306016,1.6215865 c 0.0165,0.088505 -0.0435,0.1597585 -0.133507,0.1597585 H 8.3396434 c -0.089255,0 -0.150008,-0.072004 -0.1335071,-0.1597585 L 8.5091525,8.1056109 C 8.2803903,7.8963498 8.1356326,7.5963338 8.1356326,7.2618159 c 0,-0.6307836 0.5115272,-1.1423109 1.1423109,-1.1423109 z"
     id="path15"
     style="fill:#f2f2f2;stroke:none;stroke-width:7.13438034"
     inkscape:connector-curvature="0" />
</svg>
